<?xml version="1.0" encoding="utf-8"?>
<!-- Generator: Adobe Illustrator 25.3.0, SVG Export Plug-In . SVG Version: 6.00 Build 0)  -->
<svg version="1.1" xmlns="http://www.w3.org/2000/svg" xmlns:xlink="http://www.w3.org/1999/xlink" x="0px" y="0px"
	 viewBox="0 0 572.89 122.88" style="enable-background:new 0 0 572.89 122.88;" xml:space="preserve">
<style type="text/css">
	.st0{fill:#8DC63F;}
	.st1{fill:#ED1C24;}
</style>
<g id="Layer_5">
</g>
<g id="Layer_1">
</g>
<g id="Layer_4">
</g>
<g id="Logo">
</g>
<g id="Layer_6">
</g>
<g id="Layer_8">
	<g>
		<path d="M22.2,17.83h5.85L45.9,59.48l18.17-41.65h5.89l-23.48,53.9h-1.16L22.2,17.83z"/>
		<path d="M77.12,15.39c1.16,0,2.16,0.41,3,1.24c0.84,0.82,1.25,1.82,1.25,2.98s-0.42,2.16-1.25,3s-1.84,1.25-3,1.25
			s-2.16-0.42-2.98-1.25c-0.82-0.84-1.24-1.84-1.24-3s0.41-2.16,1.24-2.98C74.96,15.81,75.96,15.39,77.12,15.39z M74.58,31.79h5.12
			v39.87h-5.12V31.79z"/>
		<path d="M87.08,31.35h29.26L93.73,67.11h21.88v4.54H84.94l22.53-35.8H87.08V31.35z"/>
		<path d="M123.97,15.39c1.16,0,2.16,0.41,3,1.24c0.84,0.82,1.25,1.82,1.25,2.98s-0.42,2.16-1.25,3s-1.84,1.25-3,1.25
			s-2.16-0.42-2.98-1.25c-0.82-0.84-1.24-1.84-1.24-3s0.41-2.16,1.24-2.98C121.81,15.81,122.81,15.39,123.97,15.39z M121.43,31.79
			h5.12v39.87h-5.12V31.79z"/>
		<path d="M155.99,29.82c6.13,0,11.22,2.22,15.27,6.65c3.66,4.07,5.49,8.88,5.49,14.43c0,5.55-1.94,10.4-5.82,14.56
			c-3.88,4.16-8.86,6.23-14.94,6.23c-6.11,0-11.09-2.08-14.96-6.23c-3.87-4.16-5.8-9.01-5.8-14.56c0-5.52,1.83-10.32,5.49-14.39
			C144.77,32.05,149.86,29.82,155.99,29.82z M155.99,34.84c-4.24,0-7.89,1.58-10.94,4.72c-3.05,3.15-4.58,6.96-4.58,11.41
			c0,2.88,0.7,5.58,2.09,8.09c1.39,2.51,3.28,4.43,5.65,5.78c2.37,1.34,4.97,2.02,7.78,2.02c2.86,0,5.47-0.67,7.83-2.02
			c2.36-1.34,4.23-3.27,5.62-5.78c1.38-2.51,2.07-5.2,2.07-8.09c0-4.46-1.53-8.26-4.58-11.41
			C163.88,36.41,160.23,34.84,155.99,34.84z"/>
	</g>
	<g>
		<path class="st0" d="M251.69,15.39c1.15,0,2.14,0.41,2.96,1.24c0.83,0.82,1.24,1.82,1.24,2.98s-0.41,2.16-1.24,3
			c-0.83,0.84-1.81,1.25-2.96,1.25s-2.13-0.42-2.94-1.25s-1.22-1.84-1.22-3s0.41-2.16,1.22-2.98
			C249.56,15.8,250.54,15.39,251.69,15.39z M249.18,31.78h5.06v39.87h-5.06V31.78z"/>
		<path class="st0" d="M264.69,56.53l-0.07-4.25c-0.07-2.08,0.01-3.85,0.25-5.31c0.53-4.58,1.67-7.94,3.45-10.07
			c1.72-1.87,3.48-3.31,5.28-4.33c2.97-1.28,6.35-1.89,10.16-1.82c2.97,0,5.71,0.76,8.24,2.27c2.53,1.51,4.33,3.55,5.4,6.11
			c1.08,2.56,1.62,6.56,1.62,12.01v20.5h-5.03V52.65c0-4.6-0.19-7.68-0.57-9.23c-0.6-2.64-1.78-4.51-3.55-5.62
			c-1.77-1.1-4.39-1.65-7.86-1.65c-3.06,0-5.79,0.9-8.19,2.69s-3.51,4.24-3.34,7.34c-0.46,1.99-0.68,5.61-0.68,10.87v14.61h-5.1
			V56.53z"/>
		<path class="st0" d="M325.58,70.27c-2.63,1.02-4.98,1.49-7.04,1.42c-3.88-0.22-6.94-2.25-9.19-6.11c-1.36-2.42-2.02-5.09-1.97-8
			v-41.4h5.1v19.26h9.37v4.4h-9.33v16.86c-0.14,4.17,1.24,7.38,4.16,9.63c2.39,1.14,4.83,1.03,7.32-0.33
			C324.64,67.84,325.17,69.25,325.58,70.27z"/>
		<path class="st0" d="M366.79,57.48l4.24,2.29c-1.36,2.79-2.97,5.03-4.81,6.72c-1.84,1.7-3.91,2.99-6.21,3.87
			c-2.3,0.88-4.89,1.33-7.79,1.33c-6.42,0-11.43-2.13-15.04-6.38c-3.61-4.25-5.42-9.06-5.42-14.41c0-5.06,1.53-9.57,4.6-13.52
			c3.88-5.04,9.08-7.56,15.62-7.56c6.68,0,12.03,2.58,16.05,7.74c2.85,3.63,4.28,8.17,4.31,13.59h-35.36
			c0.09,4.65,1.56,8.46,4.38,11.43c2.82,2.97,6.31,4.45,10.45,4.45c2.01,0,3.96-0.36,5.85-1.07c1.89-0.71,3.5-1.65,4.83-2.82
			C363.79,61.99,365.23,60.1,366.79,57.48z M366.79,46.76c-0.67-2.74-1.65-4.92-2.94-6.56c-1.29-1.63-3-2.96-5.13-3.96
			c-2.13-1.01-4.37-1.51-6.71-1.51c-3.85,0-7.17,1.26-9.94,3.78c-2.01,1.84-3.53,4.59-4.56,8.25H366.79z"/>
		<path class="st0" d="M379.82,53.41v-4.8c0.38-2.4,0.93-4.35,1.65-5.85c1.67-4.17,3.92-7.22,6.75-9.16
			c2.82-1.94,5.17-2.91,7.04-2.91c1.39,0,2.87,0.46,4.45,1.38l-2.62,4.29c-2.23-0.82-4.43-0.16-6.62,2
			c-2.19,2.16-3.7,4.51-4.54,7.05c-0.62,2.25-0.93,6.48-0.93,12.68v13.48h-5.17V53.41z"/>
		<path class="st0" d="M422.61,29.82c6.06,0,11.08,2.22,15.08,6.65c3.69,4.05,5.53,8.86,5.53,14.43c0.05,13.76,0.05,20.75,0,20.97
			c-2.3,0-4.08,0-5.35,0c0-0.17,0-3.19,0-9.05c-2.8,5.28-7.89,8.24-15.26,8.87c-6.03,0-10.96-2.08-14.77-6.23
			c-3.82-4.16-5.73-9.01-5.73-14.56c0-5.52,1.81-10.32,5.42-14.39C411.53,32.05,416.56,29.82,422.61,29.82z M422.61,34.84
			c-4.19,0-7.79,1.58-10.81,4.72c-3.02,3.15-4.52,6.96-4.52,11.41c0,2.88,0.77,5.66,2.32,8.32c1.54,2.67,4.16,4.92,7.84,6.76
			c9.24,2.08,15.81-2.17,19.71-12.76c0.22-3.39-0.14-6.64-1.08-9.74c-0.67-1.41-1.59-2.74-2.76-4
			C430.37,36.41,426.8,34.84,422.61,34.84z"/>
		<path class="st0" d="M491.25,39.12l-4.02,2.54c-3.47-4.7-8.21-7.05-14.22-7.05c-4.81,0-8.8,1.56-11.97,4.69
			c-3.17,3.12-4.76,6.93-4.76,11.41c0,2.91,0.73,5.65,2.19,8.23c1.46,2.58,3.46,4.57,6,5.98c2.54,1.41,5.38,2.11,8.54,2.11
			c5.82,0,10.55-2.33,14.22-6.98l4.02,2.65c-1.89,2.86-4.42,5.07-7.59,6.63c-3.17,1.56-6.79,2.34-10.86,2.34c-6.2,0-11.35-2-15.46-6
			c-4.11-4-6.16-8.86-6.16-14.58c0-3.88,0.96-7.47,2.89-10.78s4.56-5.89,7.9-7.74s7.09-2.78,11.25-2.78c2.58,0,5.09,0.4,7.52,1.2
			c2.43,0.8,4.49,1.85,6.19,3.14C488.65,35.46,490.08,37.11,491.25,39.12z"/>
		<path class="st0" d="M516.71,70.27c-2.63,1.02-4.98,1.49-7.04,1.42c-3.88-0.22-6.94-2.25-9.19-6.11c-1.36-2.42-2.02-5.09-1.97-8
			v-41.4h5.1v19.26h9.37v4.4h-9.33v16.86c-0.14,4.17,1.24,7.38,4.16,9.63c2.39,1.14,4.83,1.03,7.32-0.33
			C515.78,67.84,516.3,69.25,516.71,70.27z"/>
		<path class="st0" d="M526.55,15.39c1.15,0,2.14,0.41,2.96,1.24c0.83,0.82,1.24,1.82,1.24,2.98s-0.41,2.16-1.24,3
			c-0.83,0.84-1.81,1.25-2.96,1.25s-2.13-0.42-2.94-1.25s-1.22-1.84-1.22-3s0.41-2.16,1.22-2.98
			C524.42,15.8,525.4,15.39,526.55,15.39z M524.03,31.78h5.06v39.87h-5.06V31.78z"/>
		<path d="M535.84,31.86h5.39l13.17,29l13.07-29h5.42l-18.02,39.87h-0.9L535.84,31.86z"/>
	</g>
	<path id="XMLID_596_" class="st1" d="M116.66,42.97"/>
	<path id="XMLID_592_" class="st1" d="M162.03,48.95l-0.01,0c0,0.02,0.01,0.03,0.01,0.05L162.03,48.95z"/>
	<path id="XMLID_591_" class="st1" d="M160.9,46.58c-0.11-0.14-0.22-0.28-0.34-0.41"/>
	<path id="XMLID_590_" class="st1" d="M162.17,50.55c0,0.07-0.02,0.14-0.02,0.21l0.04,0L162.17,50.55z"/>
	<path d="M226.47,64.41V31.22h-5.12l0,28.27C141.08-15.78,50.13-9.23,0,22.3c0,0,86.63-52.91,184.54,15.68v33.93h5.52l0-29.94
		c10.35,7.71,20.81,16.8,31.29,27.48c38.3,34.84,81.94,49.52,123.46,53.43v-0.46C302.33,117.31,262.08,99.57,226.47,64.41z"/>
</g>
</svg>
