<?xml version="1.0" encoding="utf-8"?>
<!-- Generator: Adobe Illustrator 25.3.0, SVG Export Plug-In . SVG Version: 6.00 Build 0)  -->
<svg version="1.1" xmlns="http://www.w3.org/2000/svg" xmlns:xlink="http://www.w3.org/1999/xlink" x="0px" y="0px"
	 viewBox="0 0 1331.02 130.02" style="enable-background:new 0 0 1331.02 130.02;" xml:space="preserve">
<style type="text/css">
	.st0{fill:#1C75BC;stroke:#FFFFFF;stroke-width:3;stroke-miterlimit:10;}
	.st1{fill:#FFFFFF;}
	.st2{stroke:#FFFFFF;stroke-width:2;stroke-miterlimit:10;}
	.st3{fill:#F7941D;stroke:#FFFFFF;stroke-width:2;stroke-miterlimit:10;}
	.st4{fill:#8DC63F;}
	.st5{fill:none;stroke:#FBB040;stroke-miterlimit:10;}
	.st6{fill:none;stroke:#FBB040;stroke-width:0.25;stroke-miterlimit:10;}
	.st7{fill:#F7941D;}
	.st8{fill:#1C75BC;}
</style>
<g id="Layer_1">
</g>
<g id="Layer_4">
	<g id="XMLID_578_">
		<path id="XMLID_579_" d="M1308.37,38.03v2.57h-5.77v13.6h-2.84V40.6h-5.73v-2.57H1308.37z M1331.02,38.03V54.2h-2.84V40.88
			l-6.09,13.32h-1.87l-5.9-13.32V54.2h-2.82V38.03h4.6l5.06,11.2l5.34-11.2H1331.02z"/>
	</g>
	<path id="XMLID_576_" d="M0,1.85h12.51l47.86,104.14L90.91,39h12.68l-42.14,92.08h-2.1L0,1.85z"/>
	<path id="XMLID_574_" d="M1229.17,131.08h-2.1L1184.93,39h12.68l30.55,66.98l47.86-104.14h12.51L1229.17,131.08z"/>
	<path id="XMLID_573_" class="st7" d="M125.75,0.97c2.68,0,4.99,0.95,6.92,2.85c1.93,1.9,2.9,4.2,2.9,6.88s-0.97,4.99-2.9,6.93
		c-1.93,1.93-4.24,2.9-6.92,2.9c-2.69,0-4.98-0.97-6.88-2.9c-1.9-1.93-2.85-4.24-2.85-6.93s0.95-4.98,2.85-6.88
		C120.77,1.93,123.06,0.97,125.75,0.97z"/>
	<rect id="XMLID_572_" x="119.87" y="38.83" width="11.84" height="92.08"/>
	<path id="XMLID_570_" d="M148.75,37.82h67.57l-52.21,82.6h50.53v10.49H143.8l52.04-82.68h-47.09V37.82z"/>
	<path id="XMLID_569_" class="st7" d="M233.95,0.97c2.68,0,4.99,0.95,6.92,2.85c1.93,1.9,2.9,4.2,2.9,6.88s-0.97,4.99-2.9,6.93
		c-1.93,1.93-4.24,2.9-6.92,2.9c-2.69,0-4.98-0.97-6.88-2.9c-1.9-1.93-2.85-4.24-2.85-6.93s0.95-4.98,2.85-6.88
		C228.97,1.93,231.26,0.97,233.95,0.97z"/>
	<rect id="XMLID_568_" x="228.07" y="38.83" width="11.84" height="92.08"/>
	<path id="XMLID_565_" d="M307.9,34.3c14.16,0,25.91,5.12,35.25,15.36c8.45,9.4,12.68,20.51,12.68,33.33s-4.48,24.02-13.43,33.62
		c-8.95,9.6-20.45,14.4-34.5,14.4c-14.1,0-25.62-4.8-34.54-14.4c-8.93-9.6-13.39-20.8-13.39-33.62c0-12.76,4.22-23.84,12.67-33.24
		C281.99,39.45,293.74,34.3,307.9,34.3z M307.9,45.88c-9.79,0-18.22,3.64-25.27,10.91c-7.05,7.28-10.58,16.06-10.58,26.36
		c0,6.66,1.61,12.88,4.83,18.68c3.22,5.79,7.57,10.24,13.05,13.35c5.48,3.11,11.47,4.66,17.96,4.66c6.6,0,12.63-1.55,18.09-4.66
		c5.46-3.1,9.78-7.55,12.97-13.35c3.19-5.79,4.78-12.02,4.78-18.68c0-10.3-3.53-19.08-10.58-26.36
		C326.12,49.52,317.69,45.88,307.9,45.88z"/>
	<path id="XMLID_563_" class="st4" d="M1081.76,54.81l-9.29,5.88c-8.01-10.86-18.96-16.28-32.83-16.28
		c-11.11,0-20.33,3.61-27.65,10.83c-7.33,7.22-10.99,16.01-10.99,26.36c0,6.71,1.69,13.05,5.06,19.01
		c3.37,5.96,7.99,10.56,13.85,13.81c5.86,3.25,12.44,4.87,19.73,4.87c13.43,0,24.38-5.37,32.83-16.12l9.29,6.13
		c-4.37,6.6-10.21,11.71-17.54,15.32c-7.32,3.61-15.69,5.41-25.08,5.41c-14.32,0-26.22-4.62-35.69-13.85
		c-9.48-9.23-14.22-20.45-14.22-33.66c0-8.95,2.23-17.25,6.68-24.89c4.45-7.64,10.53-13.6,18.24-17.88
		c7.71-4.28,16.38-6.42,25.99-6.42c5.97,0,11.76,0.92,17.37,2.77c5.61,1.85,10.38,4.27,14.3,7.26
		C1075.74,46.35,1079.05,50.17,1081.76,54.81z"/>
	<path id="XMLID_562_" class="st7" d="M1163.26,0c2.65,0,4.93,0.95,6.84,2.85c1.91,1.9,2.86,4.2,2.86,6.88
		c0,2.69-0.95,4.99-2.86,6.93c-1.91,1.93-4.19,2.9-6.84,2.9c-2.65,0-4.92-0.97-6.8-2.9c-1.88-1.93-2.82-4.24-2.82-6.93
		c0-2.69,0.94-4.98,2.82-6.88C1158.35,0.95,1160.61,0,1163.26,0z"/>
	<rect id="XMLID_561_" x="1157.46" y="38.03" class="st4" width="11.69" height="91.92"/>
	<g id="XMLID_558_">
		<path id="XMLID_559_" class="st4" d="M622.99,130.44h-12.21V72.78c0-16.16-13.15-29.32-29.32-29.32
			c-16.16,0-29.32,13.15-29.32,29.32v57.67h-12.21V72.78c0-22.9,18.63-41.53,41.53-41.53c22.9,0,41.53,18.63,41.53,41.53V130.44z"/>
	</g>
	<g id="XMLID_556_">
		<path id="XMLID_557_" d="M454.72,130.44h-12.21V72.78c0-16.16-13.15-29.32-29.32-29.32c-16.16,0-29.32,13.15-29.32,29.32v57.67
			h-12.21V72.78c0-22.9,18.63-41.53,41.53-41.53c22.9,0,41.53,18.63,41.53,41.53V130.44z"/>
	</g>
	<path id="XMLID_555_" class="st4" d="M780.73,97.2c-3.59,6.04-6.92,10.41-9.99,13.09c-3.07,2.69-6.79,4.86-11.15,6.51
		c-4.37,1.65-8.87,2.48-13.51,2.48c-9.56,0-17.61-3.43-24.13-10.28c-6.52-6.85-9.9-15.66-10.12-26.4l1.24-10.16
		c2.38-8.45,5.89-14.8,10.53-19.05c6.41-5.82,14.07-8.73,22.97-8.73c5.42,0,10.58,1.16,15.5,3.48c1.37,0.65,2.66,1.36,3.88,2.12
		l-36.77,51.44c2.86,2.9,6.16,5.37,9.79,7.3l42.75-60.01c-9.06-10.44-20.8-15.66-35.24-15.66c-15.09,0-27.11,5.82-36.07,17.46
		c-7.08,9.12-10.61,19.53-10.61,31.23c0,12.37,4.17,23.46,12.52,33.28s19.93,14.73,34.74,14.73c6.69,0,12.69-1.02,17.99-3.06
		c5.31-2.04,10.09-5.02,14.34-8.94c4.26-3.92,7.96-9.09,11.11-15.53L780.73,97.2z"/>
	<g id="XMLID_553_">
		<path id="XMLID_554_" class="st4" d="M880.92,42.84c-7.47-7.17-17.59-11.59-28.74-11.59c-22.9,0-41.53,18.63-41.53,41.53v57.67
			h12.21V72.78c0-16.16,13.15-29.32,29.32-29.32c8.06,0,15.37,3.27,20.68,8.55L880.92,42.84z"/>
	</g>
	<path id="XMLID_552_" class="st4" d="M973.54,82.01c0-12.87-4.26-23.98-12.77-33.32c-9.23-10.24-20.84-15.36-34.82-15.36
		c-13.98,0-25.59,5.15-34.82,15.45c-8.35,9.4-12.52,20.48-12.52,33.24c0,12.82,4.41,24.02,13.22,33.62
		c8.82,9.6,20.19,14.4,34.12,14.4c11.3-0.97,20.26-4.31,26.9-10.01l-7.63-9.68c-8.28,7.27-18.68,9.5-31.22,6.68
		c-8.51-4.25-14.55-9.46-18.12-15.61c-3.57-6.15-5.35-12.56-5.35-19.22c0-10.3,3.48-19.08,10.45-26.36
		c6.97-7.27,15.28-10.91,24.96-10.91c9.67,0,17.91,3.64,24.71,10.91c2.71,2.91,4.84,5.99,6.38,9.23c4.53,5.91,4.53,19.48,4.53,19.48
		v45.91c2.9,0,6.88,0,11.97,0C973.65,129.94,973.65,113.8,973.54,82.01z"/>
	<path id="XMLID_551_" class="st4" d="M1119.98,117.69c-6.75-5.2-9.95-12.62-9.62-22.24V48.18h30.18V38.03h-30.26V1.85h-11.77v95.61
		c-0.11,6.71,1.41,12.87,4.56,18.47c5.2,8.9,12.27,13.6,21.23,14.1c4.75,0.17,10.17-0.92,16.25-3.27c-0.94-2.35-2.16-5.62-3.65-9.82
		C1131.15,120.06,1125.51,120.32,1119.98,117.69z"/>
	<path id="XMLID_550_" class="st4" d="M666.74,117.69c-6.75-5.2-9.95-12.62-9.62-22.24V48.18h30.18V38.03h-30.26V1.85h-11.77v95.61
		c-0.11,6.71,1.41,12.87,4.56,18.47c5.2,8.9,12.27,13.6,21.23,14.1c4.75,0.17,10.17-0.92,16.25-3.27c-0.94-2.35-2.16-5.62-3.65-9.82
		C677.9,120.06,672.27,120.32,666.74,117.69z"/>
	<polygon id="XMLID_549_" class="st4" points="486.61,1.85 486.61,13.83 507.75,13.83 507.75,129.94 519.44,129.94 519.44,13.83 
		519.44,8.58 519.44,1.85 	"/>
	<line id="XMLID_542_" class="st6" x1="57.44" y1="99.63" x2="12.1" y2="0.97"/>
	<line id="XMLID_541_" class="st6" x1="44.93" y1="99.63" x2="-0.4" y2="0.97"/>
</g>
<g id="Layer_2">
</g>
<g id="Layer_5">
</g>
<g id="Layer_3">
</g>
<g id="Layer_6">
</g>
<g id="Layer_7">
</g>
</svg>
