<svg xmlns="http://www.w3.org/2000/svg" viewBox="0 0 580 580"><defs><style>.cls-1{fill:#231f20;}.cls-2{fill:#8dc63f;}.cls-3{fill:#ed1c24;}</style></defs><g id="Layer_8" data-name="Layer 8"><path class="cls-1" d="M22.2,348.33h5.85L45.9,390l18.17-41.65H70l-23.48,53.9H45.32Z"/><path class="cls-1" d="M77.12,345.89a4.12,4.12,0,0,1,3,1.24,4,4,0,0,1,1.25,3,4,4,0,0,1-1.25,3,4.1,4.1,0,0,1-3,1.26,4,4,0,0,1-3-1.26,4.11,4.11,0,0,1-1.23-3,4.22,4.22,0,0,1,4.21-4.22Zm-2.54,16.39H79.7v39.87H74.58Z"/><path class="cls-1" d="M87.08,361.85h29.26L93.73,397.61h21.88v4.54H84.94l22.53-35.8H87.08Z"/><path class="cls-1" d="M124,345.89a4.12,4.12,0,0,1,3,1.24,4,4,0,0,1,1.25,3,4,4,0,0,1-1.25,3,4.1,4.1,0,0,1-3,1.26,4,4,0,0,1-3-1.26,4.12,4.12,0,0,1-1.24-3,4.23,4.23,0,0,1,4.22-4.22Zm-2.54,16.39h5.12v39.87h-5.12Z"/><path class="cls-1" d="M156,360.32A19.82,19.82,0,0,1,171.26,367a21.41,21.41,0,0,1-.33,29A21,21,0,0,1,141,396a21.39,21.39,0,0,1-.31-28.95A19.72,19.72,0,0,1,156,360.32Zm0,5a14.71,14.71,0,0,0-10.94,4.73,15.81,15.81,0,0,0-4.58,11.41,16.42,16.42,0,0,0,2.09,8.09,14.75,14.75,0,0,0,5.65,5.78,16.09,16.09,0,0,0,15.61,0,14.55,14.55,0,0,0,5.62-5.78,16.51,16.51,0,0,0,2.07-8.09,15.81,15.81,0,0,0-4.58-11.41A14.71,14.71,0,0,0,156,365.33Z"/><path class="cls-2" d="M251.69,345.89a4.22,4.22,0,0,1,4.2,4.21,4.08,4.08,0,0,1-1.24,3,4,4,0,0,1-3,1.26,3.93,3.93,0,0,1-2.94-1.26,4.27,4.27,0,0,1,0-6A4,4,0,0,1,251.69,345.89Zm-2.51,16.39h5.06v39.87h-5.06Z"/><path class="cls-2" d="M264.69,387l-.07-4.25a26.79,26.79,0,0,1,.25-5.31q.78-6.87,3.44-10.07a22.61,22.61,0,0,1,5.28-4.32,24.15,24.15,0,0,1,10.16-1.82,15.78,15.78,0,0,1,8.24,2.27,12.76,12.76,0,0,1,5.4,6.11q1.62,3.84,1.62,12v20.5h-5v-19a47.35,47.35,0,0,0-.57-9.23,8.46,8.46,0,0,0-3.56-5.62q-2.66-1.65-7.86-1.65a13.3,13.3,0,0,0-8.18,2.69,8.06,8.06,0,0,0-3.34,7.34,56.79,56.79,0,0,0-.68,10.87v14.61h-5.1Z"/><path class="cls-2" d="M325.58,400.77a18.09,18.09,0,0,1-7,1.42q-5.82-.33-9.19-6.11a15.51,15.51,0,0,1-2-8V346.69h5.1V366h9.37v4.4h-9.33v16.86q-.22,6.26,4.16,9.63a7.69,7.69,0,0,0,7.33-.32C324.64,398.33,325.17,399.75,325.58,400.77Z"/><path class="cls-2" d="M366.79,388l4.24,2.28a22.41,22.41,0,0,1-4.82,6.73,19.18,19.18,0,0,1-6.21,3.87,21.6,21.6,0,0,1-7.79,1.33q-9.61,0-15-6.38a21.68,21.68,0,0,1-5.42-14.41,21.42,21.42,0,0,1,4.6-13.52A18.67,18.67,0,0,1,352,360.32,19.33,19.33,0,0,1,368,368.06q4.28,5.44,4.31,13.59H337a16.38,16.38,0,0,0,4.38,11.43,13.82,13.82,0,0,0,10.44,4.45,16.29,16.29,0,0,0,5.85-1.07,15.63,15.63,0,0,0,4.83-2.81A24.23,24.23,0,0,0,366.79,388Zm0-10.73a17.12,17.12,0,0,0-2.94-6.56,14.24,14.24,0,0,0-5.14-4,15.62,15.62,0,0,0-6.71-1.51,14.3,14.3,0,0,0-9.95,3.78,17.24,17.24,0,0,0-4.56,8.25Z"/><path class="cls-2" d="M379.82,383.9v-4.79a21.65,21.65,0,0,1,1.65-5.86q2.52-6.24,6.75-9.15t7-2.91a8.91,8.91,0,0,1,4.45,1.38l-2.62,4.29c-2.23-.82-4.43-.16-6.63,2a17.68,17.68,0,0,0-4.54,7.05q-.93,3.38-.93,12.68v13.49h-5.17Z"/><path class="cls-2" d="M422.61,360.32A19.42,19.42,0,0,1,437.69,367a20.67,20.67,0,0,1,5.53,14.43q.07,20.64,0,21h-5.35v-9.05q-4.2,7.92-15.26,8.87A19.14,19.14,0,0,1,407.84,396a21.57,21.57,0,0,1-.3-28.95A19.39,19.39,0,0,1,422.61,360.32Zm0,5a14.42,14.42,0,0,0-10.8,4.73,15.88,15.88,0,0,0-4.53,11.41,16.41,16.41,0,0,0,2.32,8.32q2.31,4,7.84,6.76,13.86,3.13,19.71-12.75a27.51,27.51,0,0,0-1.07-9.75,16.11,16.11,0,0,0-2.77-4A14.11,14.11,0,0,0,422.61,365.33Z"/><path class="cls-2" d="M491.25,369.62l-4,2.55A16.69,16.69,0,0,0,473,365.11a16.41,16.41,0,0,0-12,4.69,15.42,15.42,0,0,0-4.75,11.41,16.48,16.48,0,0,0,2.19,8.24,15.37,15.37,0,0,0,6,6,18.13,18.13,0,0,0,22.76-4.87l4,2.65a18.93,18.93,0,0,1-7.59,6.63,24.15,24.15,0,0,1-10.86,2.35,21.23,21.23,0,0,1-15.45-6,19.58,19.58,0,0,1-6.16-14.58,21,21,0,0,1,2.89-10.77,20.47,20.47,0,0,1,7.9-7.74,22.72,22.72,0,0,1,11.25-2.78,23.82,23.82,0,0,1,7.52,1.2,20.85,20.85,0,0,1,6.2,3.14A16.75,16.75,0,0,1,491.25,369.62Z"/><path class="cls-2" d="M516.71,400.77a18.05,18.05,0,0,1-7,1.42q-5.81-.33-9.19-6.11a15.5,15.5,0,0,1-2-8V346.69h5.1V366H513v4.4h-9.34v16.86q-.21,6.26,4.17,9.63a7.67,7.67,0,0,0,7.32-.32C515.78,398.33,516.3,399.75,516.71,400.77Z"/><path class="cls-2" d="M526.55,345.89a4.22,4.22,0,0,1,4.2,4.21,4.12,4.12,0,0,1-1.24,3,4,4,0,0,1-3,1.26,4,4,0,0,1-2.95-1.26,4.27,4.27,0,0,1,0-6A4,4,0,0,1,526.55,345.89ZM524,362.28h5.06v39.87H524Z"/><path class="cls-1" d="M535.84,362.35h5.39l13.17,29,13.07-29h5.42l-18,39.87H554Z"/><path class="cls-3" d="M162,379.45h0s0,0,0,.05Z"/><path class="cls-3" d="M160.9,377.07a4.12,4.12,0,0,0-.33-.4"/><path class="cls-3" d="M162.17,381a1.49,1.49,0,0,0,0,.21h0Z"/><path class="cls-1" d="M296.41,338s84.94-92.38,73.76-169.47c-1.51-10.41-3.92-22.1-17.47-40.51,0,0,12.68,80.94-26.67,161.3-.77,1.57-4.83-4.69-5.71-3.15-1.36,2.36.45,12-3.37,20.45C311.35,319.1,305.9,325.62,296.41,338Z"/><path class="cls-1" d="M294,338s-82.18-87.3-50.57-252.95C243.45,85.08,156.85,209.76,294,338Z"/><path class="cls-2" d="M301.24,346.57S435.14,224.3,366.6,128.05C366.6,128.05,429.34,205.34,301.24,346.57Z"/><path class="cls-1" d="M226.47,394.9V361.72h-5.12V390C141.08,314.72,50.13,321.27,0,352.79c0,0,86.63-52.91,184.54,15.69v33.93h5.52v-30a270.38,270.38,0,0,1,31.29,27.48c38.3,34.84,81.94,49.52,123.47,53.43v-.45C302.33,447.81,262.08,430.06,226.47,394.9Z"/><path class="cls-2" d="M296.41,133.19A40.56,40.56,0,1,0,337,173.75,40.56,40.56,0,0,0,296.41,133.19Zm32.37,55-17-5.55,13.32,12-15.5-9,10.55,14.47-13.3-12,7.3,16.36-10.51-14.5,3.75,17.51-7.27-16.37,0,17.91-3.7-17.52L292.7,209l0-17.91-7.26,16.37,3.74-17.51-10.51,14.5,7.3-16.36-13.3,12,10.55-14.47-15.5,9,13.32-12-17,5.55,15.52-8.93-17.81,1.89,17-5.52L261,173.75l17.81-1.85-17-5.52,17.81,1.9L264,159.34l17,5.55-13.32-12,15.5,9-10.55-14.47,13.3,12-7.3-16.36,10.51,14.5-3.74-17.51,7.26,16.37,0-17.91L296.41,156l3.7-17.52,0,17.91,7.27-16.37-3.75,17.51,10.51-14.5-7.3,16.36,13.3-12-10.55,14.47,15.5-9-13.32,12,17-5.55-15.52,8.94,17.81-1.9-17,5.52,17.81,1.85L314,175.6l17,5.52-17.81-1.89Z"/></g></svg>