<?xml version="1.0" encoding="utf-8"?>
<!-- Generator: Adobe Illustrator 25.3.0, SVG Export Plug-In . SVG Version: 6.00 Build 0)  -->
<svg version="1.1" id="Layer_1" xmlns="http://www.w3.org/2000/svg" xmlns:xlink="http://www.w3.org/1999/xlink" x="0px" y="0px"
	 viewBox="0 0 2000 2000" style="enable-background:new 0 0 2000 2000;" xml:space="preserve">
<style type="text/css">
	.st0{fill:#1C75BC;}
	.st1{fill:#8DC63F;}
	.st2{fill:#FFFFFF;}
	.st3{fill:#F7941D;}
</style>
<path class="st0" d="M1042.51,7.74c-527.96,0-957.49,429.53-957.49,957.49c0,138.26,29.5,269.75,82.47,388.57
	C67.25,1413.86,0,1523.57,0,1648.7c0,189.44,154.12,343.57,343.57,343.57c122.4,0,230.04-64.35,290.91-160.99
	c123.86,58.59,262.18,91.43,408.04,91.43c527.96,0,957.49-429.53,957.49-957.49C2000,437.26,1570.47,7.74,1042.51,7.74z
	 M1042.51,1874.55c-137.65,0-268.21-30.8-385.26-85.78c19.19-42.8,29.88-90.21,29.88-140.07c0-189.44-154.12-343.57-343.57-343.57
	c-47.15,0-92.12,9.56-133.06,26.82c-49.67-112.24-77.32-236.31-77.32-366.73c0-501.41,407.92-909.33,909.33-909.33
	s909.33,407.93,909.33,909.33C1951.85,1466.63,1543.92,1874.55,1042.51,1874.55z"/>
<path id="XMLID_151_" class="st1" d="M1042.51,56.3c-501.41,0-909.33,407.93-909.33,909.34c0,130.29,27.6,254.23,77.17,366.38
	c40.99-17.31,86-26.89,133.22-26.89c189.44,0,343.57,154.13,343.57,343.57c0,50-10.82,97.49-30.11,140.39
	c117.11,55.05,247.76,85.88,385.49,85.88c501.41,0,909.34-407.92,909.34-909.33S1543.92,56.3,1042.51,56.3z"/>
<path id="XMLID_148_" class="st2" d="M416.94,494.75h57.13c108.01,0,205.72,64.11,248.73,163.19l175.44,404.24l176.95-404.87
	c43.16-98.74,140.69-162.56,248.45-162.56h55.9l-481.3,1038.27L416.94,494.75z"/>
<path id="XMLID_138_" class="st2" d="M1459.24,1533.02h-29.02V869.28c0-65.01,70.02-117.71,156.39-117.71h57.32v642.43
	C1643.94,1470.78,1561.25,1533.02,1459.24,1533.02z"/>
<path id="XMLID_133_" class="st2" d="M1430.22,489.69h98.48c63.64,0,115.23,51.59,115.23,115.23v125.54h-117.76
	c-53,0-95.96-42.96-95.96-95.96V489.69z"/>
<path id="XMLID_132_" class="st3" d="M1551.79,563.3v-73.62h-32.1v72.75c-22.08,6.38-38.25,26.71-38.25,50.84
	c0,29.25,23.71,52.96,52.96,52.96c29.25,0,52.96-23.71,52.96-52.96C1587.36,590.13,1572.49,570.51,1551.79,563.3z"/>
<path id="XMLID_122_" class="st3" d="M343.57,1398.76c-137.82,0-249.93,112.12-249.93,249.94s112.12,249.93,249.93,249.93
	S593.5,1786.51,593.5,1648.7S481.38,1398.76,343.57,1398.76z"/>
<path id="XMLID_105_" class="st2" d="M451.35,1819.33l-4.09-20.14l0,0c6.32-5.18,10.35-13.05,10.35-21.84
	c0-13.47-9.48-24.76-22.12-27.57l-34.89-105.48h31.03c3.46,0,6.27-2.8,6.27-6.27s-2.8-6.27-6.27-6.27h-35.17l-26.36-79.69
	c8.56-7.43,13.98-18.38,13.98-30.58c0-20.21-14.88-37.01-34.25-40.03v-25.13c0-3.46-2.8-6.27-6.27-6.27s-6.27,2.81-6.27,6.27v25.13
	c-19.38,3.02-34.25,19.82-34.25,40.03c0,12.2,5.43,23.15,13.98,30.58l-26.36,79.69h-26.12c-3.46,0-6.27,2.8-6.27,6.27
	s2.8,6.27,6.27,6.27h21.97l-34.89,105.48c-12.64,2.81-22.12,14.1-22.12,27.57c0,8.79,4.04,16.65,10.35,21.84l0,0l-4.09,20.14
	l2.71,0.89l-7.22,27.09l10.73-25.93l2.64,0.87l9.17-16.93h0c1.29,0.18,2.61,0.28,3.96,0.28c15.57,0,28.25-12.67,28.25-28.25
	c0-7.62-3.04-14.54-7.96-19.63l0,0l34.92-113.41h28.87v15.45c0,3.46,2.8,6.27,6.27,6.27c3.46,0,6.27-2.8,6.27-6.27v-15.45h19.81
	l34.92,113.41l0,0c-4.92,5.09-7.96,12.01-7.96,19.63c0,15.57,12.67,28.25,28.25,28.25c1.34,0,2.66-0.1,3.96-0.28h0l9.17,16.93
	l2.64-0.87l10.73,25.93l-7.22-27.09L451.35,1819.33z M257.76,1793.07c-8.66,0-15.71-7.05-15.71-15.71s7.05-15.71,15.71-15.71
	c8.66,0,15.71,7.05,15.71,15.71S266.43,1793.07,257.76,1793.07z M343.57,1493.52c15.43,0,27.99,12.55,27.99,27.99
	s-12.55,27.99-27.99,27.99s-27.99-12.55-27.99-27.99S328.13,1493.52,343.57,1493.52z M354.36,1631.78v-10.02
	c0-3.46-2.8-6.27-6.27-6.27c-3.46,0-6.27,2.8-6.27,6.27v10.02h-25.01l21.58-70.1c1.69,0.22,3.41,0.34,5.17,0.34s3.47-0.12,5.17-0.34
	l21.58,70.1H354.36z M429.37,1793.07c-8.66,0-15.71-7.05-15.71-15.71s7.05-15.71,15.71-15.71s15.71,7.05,15.71,15.71
	S438.03,1793.07,429.37,1793.07z"/>
<path id="XMLID_102_" class="st2" d="M343.57,1946.79c-164.36,0-298.09-133.72-298.09-298.09s133.72-298.09,298.09-298.09
	s298.09,133.72,298.09,298.09S507.93,1946.79,343.57,1946.79z M343.57,1398.76c-137.82,0-249.93,112.12-249.93,249.94
	s112.12,249.93,249.93,249.93S593.5,1786.51,593.5,1648.7S481.38,1398.76,343.57,1398.76z"/>
</svg>
