<?xml version="1.0" encoding="utf-8"?>
<!-- Generator: Adobe Illustrator 25.3.0, SVG Export Plug-In . SVG Version: 6.00 Build 0)  -->
<svg version="1.1" id="Layer_1" xmlns="http://www.w3.org/2000/svg" xmlns:xlink="http://www.w3.org/1999/xlink" x="0px" y="0px"
	 viewBox="0 0 394.59 424.32" style="enable-background:new 0 0 394.59 424.32;" xml:space="preserve">
<style type="text/css">
	.st0{fill:#E6E7E8;}
	.st1{fill:none;stroke:#FBB040;stroke-width:0.25;stroke-miterlimit:10;}
</style>
<path id="XMLID_43_" class="st0" d="M203.8,45.07c-98.68,0-178.96,80.28-178.96,178.96c0,25.84,5.52,50.42,15.42,72.63
	c-18.74,11.23-31.31,31.73-31.31,55.12c0,35.41,28.81,64.21,64.21,64.21c22.88,0,42.99-12.03,54.36-30.1
	c23.15,10.95,49.01,17.1,76.27,17.1c98.68,0,178.96-80.28,178.96-178.96C382.76,125.35,302.48,45.07,203.8,45.07z M73.17,407.48
	c-30.72,0-55.71-24.99-55.71-55.71s24.99-55.71,55.71-55.71s55.71,24.99,55.71,55.71S103.89,407.48,73.17,407.48z M203.8,393.98
	c-25.73,0-50.14-5.76-72.02-16.04c3.59-8,5.6-16.85,5.6-26.17c0-35.41-28.81-64.21-64.21-64.21c-8.81,0-17.21,1.79-24.87,5.01
	c-9.28-20.98-14.45-44.17-14.45-68.54c0-93.71,76.24-169.96,169.96-169.96s169.96,76.24,169.96,169.96
	C373.76,317.74,297.52,393.98,203.8,393.98z"/>
<g id="XMLID_155_">
	<path class="st1" d="M402.14,177.77"/>
</g>
<g id="XMLID_148_">
	<path class="st0" d="M86.88,136.09h10.68c20.19,0,38.45,11.98,46.49,30.5l32.79,75.55l33.07-75.67
		c8.07-18.46,26.29-30.38,46.44-30.38h10.45l-89.95,194.05L86.88,136.09z"/>
</g>
<g id="XMLID_138_">
	<path class="st0" d="M281.69,330.15h-5.42V206.09c0-12.15,13.09-22,29.23-22h10.71v120.07
		C316.21,318.52,300.76,330.15,281.69,330.15z"/>
</g>
<path id="XMLID_28_" class="st0" d="M298.99,135.58v13.33c3.87,1.35,6.65,5.01,6.65,9.34c0,5.47-4.43,9.9-9.9,9.9
	c-5.47,0-9.9-4.43-9.9-9.9c0-4.51,3.02-8.31,7.15-9.5v-13.6h-16.72v27.07c0,9.91,8.03,17.93,17.93,17.93h22.01v-23.46
	C316.21,146.27,308.82,137.58,298.99,135.58z"/>
<g id="XMLID_27_">
	<circle id="XMLID_30_" class="st0" cx="73.17" cy="328" r="5.23"/>
	<path id="XMLID_31_" class="st0" d="M57.13,372.88c-1.62,0-2.94,1.32-2.94,2.94c0,1.62,1.32,2.94,2.94,2.94s2.94-1.32,2.94-2.94
		C60.07,374.19,58.75,372.88,57.13,372.88z"/>
	<path id="XMLID_32_" class="st0" d="M73.17,335.57c-0.33,0-0.65-0.02-0.97-0.06l-4.03,13.1h4.67v-1.87c0-0.65,0.52-1.17,1.17-1.17
		c0.65,0,1.17,0.52,1.17,1.17v1.87h2.98l-4.03-13.1C73.82,335.55,73.5,335.57,73.17,335.57z"/>
	<path id="XMLID_40_" class="st0" d="M73.17,305.05c-25.76,0-46.71,20.96-46.71,46.71s20.96,46.71,46.71,46.71
		s46.71-20.96,46.71-46.71S98.93,305.05,73.17,305.05z M93.31,383.66l-0.51,0.17l1.35,5.06l-2.01-4.85l-0.49,0.16l-1.71-3.17
		c-0.24,0.03-0.49,0.05-0.74,0.05c-2.91,0-5.28-2.37-5.28-5.28c0-1.42,0.57-2.72,1.49-3.67l0,0l-6.53-21.2h-3.7v2.89
		c0,0.65-0.52,1.17-1.17,1.17c-0.65,0-1.17-0.52-1.17-1.17v-2.89h-5.4l-6.53,21.2l0,0c0.92,0.95,1.49,2.24,1.49,3.67
		c0,2.91-2.37,5.28-5.28,5.28c-0.25,0-0.5-0.02-0.74-0.05l-1.71,3.17l-0.49-0.16l-2.01,4.85l1.35-5.06l-0.51-0.17l0.76-3.76
		c-1.18-0.97-1.93-2.44-1.93-4.08c0-2.52,1.77-4.63,4.13-5.15l6.52-19.71H58.4c-0.65,0-1.17-0.52-1.17-1.17
		c0-0.65,0.52-1.17,1.17-1.17h4.88l4.93-14.89c-1.6-1.39-2.61-3.44-2.61-5.72c0-3.78,2.78-6.92,6.4-7.48v-4.7
		c0-0.65,0.52-1.17,1.17-1.17c0.65,0,1.17,0.52,1.17,1.17v4.7c3.62,0.56,6.4,3.7,6.4,7.48c0,2.28-1.01,4.33-2.61,5.72l4.93,14.89
		h6.57c0.65,0,1.17,0.52,1.17,1.17c0,0.65-0.52,1.17-1.17,1.17h-5.8l6.52,19.71c2.36,0.52,4.13,2.63,4.13,5.15
		c0,1.64-0.75,3.11-1.93,4.08L93.31,383.66z"/>
	<path id="XMLID_46_" class="st0" d="M89.21,372.88c-1.62,0-2.94,1.32-2.94,2.94c0,1.62,1.32,2.94,2.94,2.94
		c1.62,0,2.94-1.32,2.94-2.94C92.14,374.19,90.83,372.88,89.21,372.88z"/>
</g>
</svg>
